<svg id="Layer_1" data-name="Layer 1" xmlns="http://www.w3.org/2000/svg" viewBox="0 0 303.49 257.91"><defs><style>.cls-1,.cls-3{fill:#fff;}.cls-1,.cls-2,.cls-5,.cls-6,.cls-7,.cls-8{stroke:#3d4752;stroke-miterlimit:10;}.cls-1,.cls-2,.cls-8{stroke-width:3px;}.cls-2,.cls-4{fill:#3d4752;}.cls-5,.cls-6,.cls-7,.cls-8{fill:none;}.cls-5{stroke-width:3.03px;}.cls-6{stroke-width:3.14px;}.cls-7{stroke-width:2.99px;}.cls-9{opacity:0;}.cls-10{fill:#46515c;}</style></defs><title>network-diagram-featured-image</title><path class="cls-1 zcGfSqRT_0" d="M63.24,182.8c0-1.57.37-2.86,0.81-2.86H89.92c0.45,0,.81,1.29.81,2.86v63.68c0,1.64-.37,2.86-0.81,2.86H64.06c-0.45,0-.81-1.21-0.81-2.86V182.8Z" transform="translate(0 -0.04)"></path><path class="cls-1 zcGfSqRT_1" d="M34.52,239.59a0.27,0.27,0,0,1,.28-0.27h8.74a0.27,0.27,0,0,1,.28.27v6a0.27,0.27,0,0,1-.28.27H34.79a0.27,0.27,0,0,1-.28-0.27v-6Z" transform="translate(0 -0.04)"></path><path class="cls-2 zcGfSqRT_2" d="M1.64,193.39a2.1,2.1,0,0,1,2.19-2H73.51a2.1,2.1,0,0,1,2.19,2v44a2.07,2.07,0,0,1-2.19,2H3.83a2.07,2.07,0,0,1-2.19-2v-44Z" transform="translate(0 -0.04)"></path><path class="cls-1 zcGfSqRT_3" d="M3.65,256.35l73.78-.21a1.61,1.61,0,0,0,1.44-2.3l-4-8.36a1.61,1.61,0,0,0-1.45-.91l-67.27.09a1.61,1.61,0,0,0-1.54,1.16l-2.48,8.48A1.61,1.61,0,0,0,3.65,256.35Z" transform="translate(0 -0.04)"></path><path class="cls-3 zcGfSqRT_4" d="M6.95,198.48A1.73,1.73,0,0,1,8.82,197H68.17A1.73,1.73,0,0,1,70,198.48V232.6a1.7,1.7,0,0,1-1.87,1.53H8.82a1.7,1.7,0,0,1-1.87-1.53V198.48Z" transform="translate(0 -0.04)"></path><path class="cls-4 zcGfSqRT_5" width="10.26" height="8.37" d="M0.18 78.17 L10.44 78.17 L10.44 86.54 L0.18 86.54 Z"></path><path class="cls-4 zcGfSqRT_6" width="21.06" height="8.06" d="M12.6 78.17 L33.66 78.17 L33.66 86.23 L12.6 86.23 Z"></path><path class="cls-4 zcGfSqRT_7" width="20.97" height="8.06" d="M36.09 78.17 L57.06 78.17 L57.06 86.23 L36.09 86.23 Z"></path><path class="cls-4 zcGfSqRT_8" width="21.06" height="8.06" d="M59.67 78.17 L80.73 78.17 L80.73 86.23 L59.67 86.23 Z"></path><path class="cls-4 zcGfSqRT_9" width="7.29" height="8.37" d="M82.44 78.17 L89.73 78.17 L89.73 86.54 L82.44 86.54 Z"></path><path class="cls-4 zcGfSqRT_10" width="21.06" height="7.96" d="M0 88.16 L21.06 88.16 L21.06 96.11999999999999 L0 96.11999999999999 Z"></path><path class="cls-4 zcGfSqRT_11" width="21.06" height="7.96" d="M22.86 88.16 L43.92 88.16 L43.92 96.11999999999999 L22.86 96.11999999999999 Z"></path><path class="cls-4 zcGfSqRT_12" width="21.06" height="7.96" d="M45.99 88.16 L67.05 88.16 L67.05 96.11999999999999 L45.99 96.11999999999999 Z"></path><path class="cls-4 zcGfSqRT_13" width="21.06" height="7.96" d="M68.94 88.16 L90 88.16 L90 96.11999999999999 L68.94 96.11999999999999 Z"></path><path class="cls-4 zcGfSqRT_14" width="10.26" height="8.37" d="M0.18 97.75 L10.44 97.75 L10.44 106.12 L0.18 106.12 Z"></path><path class="cls-4 zcGfSqRT_15" width="21.06" height="8.05" d="M12.6 97.75 L33.66 97.75 L33.66 105.8 L12.6 105.8 Z"></path><path class="cls-4 zcGfSqRT_16" width="21.06" height="8.05" d="M36.09 97.75 L57.150000000000006 97.75 L57.150000000000006 105.8 L36.09 105.8 Z"></path><path class="cls-4 zcGfSqRT_17" width="20.97" height="8.05" d="M59.76 97.75 L80.72999999999999 97.75 L80.72999999999999 105.8 L59.76 105.8 Z"></path><path class="cls-4 zcGfSqRT_18" width="7.29" height="8.37" d="M82.53 97.75 L89.82000000000001 97.75 L89.82000000000001 106.12 L82.53 106.12 Z"></path><path class="cls-4 zcGfSqRT_19" width="21.06" height="8.01" d="M0 107.42 L21.06 107.42 L21.06 115.43 L0 115.43 Z"></path><path class="cls-4 zcGfSqRT_20" width="21.06" height="8.01" d="M22.86 107.42 L43.92 107.42 L43.92 115.43 L22.86 115.43 Z"></path><path class="cls-4 zcGfSqRT_21" width="21.06" height="8.01" d="M45.99 107.42 L67.05 107.42 L67.05 115.43 L45.99 115.43 Z"></path><path class="cls-4 zcGfSqRT_22" width="21.06" height="8.01" d="M68.94 107.42 L90 107.42 L90 115.43 L68.94 115.43 Z"></path><path class="cls-4 zcGfSqRT_23" width="10.26" height="8.37" d="M0.18 116.33 L10.44 116.33 L10.44 124.7 L0.18 124.7 Z"></path><path class="cls-4 zcGfSqRT_24" width="21.06" height="8.05" d="M12.6 116.33 L33.66 116.33 L33.66 124.38 L12.6 124.38 Z"></path><path class="cls-4 zcGfSqRT_25" width="21.06" height="8.05" d="M36.09 116.33 L57.150000000000006 116.33 L57.150000000000006 124.38 L36.09 124.38 Z"></path><path class="cls-4 zcGfSqRT_26" width="20.97" height="8.05" d="M59.76 116.33 L80.72999999999999 116.33 L80.72999999999999 124.38 L59.76 124.38 Z"></path><path class="cls-4 zcGfSqRT_27" width="7.29" height="8.37" d="M82.53 116.33 L89.82000000000001 116.33 L89.82000000000001 124.7 L82.53 124.7 Z"></path><path class="cls-4 zcGfSqRT_28" width="21.06" height="8.01" d="M0 126.01 L21.06 126.01 L21.06 134.02 L0 134.02 Z"></path><path class="cls-4 zcGfSqRT_29" width="21.06" height="8.01" d="M22.86 126.01 L43.92 126.01 L43.92 134.02 L22.86 134.02 Z"></path><path class="cls-4 zcGfSqRT_30" width="21.06" height="8.01" d="M45.99 126.01 L67.05 126.01 L67.05 134.02 L45.99 134.02 Z"></path><path class="cls-4 zcGfSqRT_31" width="21.06" height="8.01" d="M68.94 126.01 L90 126.01 L90 134.02 L68.94 134.02 Z"></path><path class="cls-5 zcGfSqRT_32" d="M89.12,118.1L110.78,118.1L132.45,118.1"></path><path class="cls-6 zcGfSqRT_33" d="M151,91.27V76.54s0,0-.09,0l0,0V61.73" transform="translate(0 -0.04)"></path><path class="cls-4 zcGfSqRT_34" d="M151.49,91.23L151.03,91.1L150.81,91.14L150.59,91.19L150.59,91.1L151.49,91.1L151.49,91.23Z"></path><path class="cls-3 zcGfSqRT_35" d="M246.63,153.33L245.24,154.73L246.68,156.08L246.63,153.33Z"></path><path class="cls-3 zcGfSqRT_36" d="M246.63,162.33L245.24,163.68L246.63,165.08L246.63,162.33Z"></path><path class="cls-3 zcGfSqRT_37" width="2.07" height="1.08" d="M246.54 163.14 L248.60999999999999 163.14 L248.60999999999999 164.22 L246.54 164.22 Z"></path><path class="cls-7 zcGfSqRT_38" d="M160.22,51.18h52.67c1.25,0,2.23-.3,2.23-0.68V36c0-.38,1-0.68,2.23-0.68H236" transform="translate(0 -0.04)"></path><path class="cls-4 zcGfSqRT_39" width="0.09" height="0.9" d="M190.41 59.51 L190.5 59.51 L190.5 60.41 L190.41 60.41 Z"></path><path class="cls-8 zcGfSqRT_40" d="M186.09,142.44v13.73a2.23,2.23,0,0,0,2.25,2.25H235" transform="translate(0 -0.04)"></path><path class="cls-4 zcGfSqRT_41" d="M186.9,145.14h-0.27l0.27-.09v0.09Zm-0.45,0H186V145Z" transform="translate(0 -0.04)"></path><path class="cls-8 zcGfSqRT_42" d="M45,49.45L45,79.28"></path><path class="cls-9 zcGfSqRT_43" d="M44.43,0.96L11.9,53.97L79.4,54.38L44.43,0.96Z"></path><path class="cls-1 zcGfSqRT_44" d="M42.63,54c-16.6-.09-30.24-0.18-30.24-0.27s31.9-52.24,32-52.2S67.11,35.92,78.09,52.8l1,1.48-3.15,0C74.27,54.24,59.19,54.15,42.63,54Z" transform="translate(0 -0.04)"></path><path class="cls-9 zcGfSqRT_45" d="M29.4,26.11L60.36,25.89L45.92,53.56L29.4,26.11Z"></path><path class="cls-2 zcGfSqRT_46" d="M38,39.85L30.14,26.72l14.7-.12c8.06-.08,14.74-0.08,14.78-0.08S46,52.94,45.94,53,42.37,47.12,38,39.85Z" transform="translate(0 -0.04)"></path><path class="cls-1 zcGfSqRT_47" d="M208.64,168.15H258.1a0.88,0.88,0,0,1,.7,1h0a0.88,0.88,0,0,1-.7,1H208.64a0.88,0.88,0,0,1-.7-1h0A0.88,0.88,0,0,1,208.64,168.15Z" transform="translate(0 -0.04)"></path><path class="cls-8 zcGfSqRT_48" d="M160.22,51.18h52.7a2.51,2.51,0,0,1,2.25,2.7v51.88a2.54,2.54,0,0,0,2.25,2.7H257" transform="translate(0 -0.04)"></path><path class="cls-4 zcGfSqRT_49" width="0.09" height="0.9" d="M190.41 59.51 L190.5 59.51 L190.5 60.41 L190.41 60.41 Z"></path><path class="cls-4 zcGfSqRT_50" d="M146.4,145.14h-0.27l0.27-.09v0.09Zm-0.45,0H145.5V145Z" transform="translate(0 -0.04)"></path><path class="cls-2 zcGfSqRT_51" d="M182.49,19.19h0c3,0.63,3,.63,2.47,3.64l-2.88,15c-0.54,3.11-.54,3.11-3.55,2.52s-2.93-.63-2.39-3.65l2.79-15.12C179.56,18.6,179.56,18.6,182.49,19.19Z" transform="translate(0 -0.04)"></path><path class="cls-2 zcGfSqRT_52" d="M185.68,2.54h0c1.8,0.36,1.8.36,1.48,2.21l-3,15.71c-0.32,1.85-.32,1.85-2.12,1.53s-1.93-.4-1.53-2.25L183.43,4C183.75,2.18,183.75,2.18,185.68,2.54Z" transform="translate(0 -0.04)"></path><path class="cls-3 zcGfSqRT_53" width="21.19" height="20.74" d="M166.51 37.82 L187.7 37.82 L187.7 58.56 L166.51 58.56 Z"></path><path class="cls-2 zcGfSqRT_54" d="M119,18.88h0c3-.59,3-0.59,3.51,2.43l2.83,15.07C126,39.45,126,39.45,123,40s-3,.58-3.55-2.48l-2.83-15.08C116.07,19.47,116.07,19.47,119,18.88Z" transform="translate(0 -0.04)"></path><path class="cls-2 zcGfSqRT_55" d="M115.89,2.19h0c1.85-.36,1.85-0.36,2.2,1.53L121,19.42c0.36,1.85.36,1.85-1.48,2.25s-1.8.32-2.12-1.53l-3-15.7C114.09,2.55,114.09,2.55,115.89,2.19Z" transform="translate(0 -0.04)"></path><path class="cls-1 zcGfSqRT_56" width="79.11" height="25.51" d="M111.3 35.84 L190.41 35.84 L190.41 61.35000000000001 L111.3 61.35000000000001 Z"></path><path class="cls-4 zcGfSqRT_57" width="18.94" height="18.51" d="M167.62 39.29 L186.56 39.29 L186.56 57.8 L167.62 57.8 Z"></path><path class="cls-1 zcGfSqRT_58" d="M206.47,148.44h53.8a1.26,1.26,0,0,1,1.26,1.26v15.73a1.26,1.26,0,0,1-1.26,1.26h-53.8a1.26,1.26,0,0,1-1.26-1.26V149.7A1.26,1.26,0,0,1,206.47,148.44Z" transform="translate(0 -0.04)"></path><path class="cls-4 zcGfSqRT_59" d="M247.42,152.36h8a1.29,1.29,0,0,1,1.29,1.3v7.81a1.29,1.29,0,0,1-1.29,1.3h-8a1.29,1.29,0,0,1-1.29-1.3v-7.81A1.29,1.29,0,0,1,247.42,152.36Z" transform="translate(0 -0.04)"></path><path class="cls-1 zcGfSqRT_60" d="M243.54,2h32.77a2.39,2.39,0,0,1,2.29,2.48v19.6a2.39,2.39,0,0,1-2.29,2.48H243.54a2.39,2.39,0,0,1-2.29-2.48V4.48A2.39,2.39,0,0,1,243.54,2Z" transform="translate(0 -0.04)"></path><path class="cls-1 zcGfSqRT_61" d="M226.75,26.4c0-.52.9-1,2-1H292c1.1,0,2,.43,2,1V47.68c0,0.55-.9,1-2,1H228.74c-1.1,0-2-.41-2-1V26.4Z" transform="translate(0 -0.04)"></path><path class="cls-10 zcGfSqRT_62" d="M270.73,34.49A2.86,2.86,0,0,1,267.62,37c-1.67,0-3.11-1.17-3.11-2.52S266,32,267.62,32,270.73,33.14,270.73,34.49Z" transform="translate(0 -0.04)"></path><path class="cls-10 zcGfSqRT_63" d="M280.58,34.49a3.17,3.17,0,0,1-6.21,0c0-1.35,1.35-2.48,3.11-2.48S280.58,33.14,280.58,34.49Z" transform="translate(0 -0.04)"></path><path class="cls-10 zcGfSqRT_64" d="M290.17,34.49c0,1.35-1.44,2.52-3.11,2.52A2.86,2.86,0,0,1,284,34.49c0-1.35,1.35-2.48,3.11-2.48S290.17,33.14,290.17,34.49Z" transform="translate(0 -0.04)"></path><path class="cls-1 zcGfSqRT_65" width="42.98" height="13.05" d="M238.87 42.91 L281.85 42.91 L281.85 55.959999999999994 L238.87 55.959999999999994 Z"></path><path class="cls-2 zcGfSqRT_66" width="67.41" height="6.43" d="M136.5 249.97 L203.91 249.97 L203.91 256.4 L136.5 256.4 Z"></path><path class="cls-1 zcGfSqRT_67" d="M156.5,242.5h44.23a1.14,1.14,0,0,1,1.09.81l1.64,5.32a1.14,1.14,0,0,1-1.09,1.48H158.14a1.14,1.14,0,0,1-1.09-.81L155.41,244A1.14,1.14,0,0,1,156.5,242.5Z" transform="translate(0 -0.04)"></path><path class="cls-1 zcGfSqRT_68" d="M183.41,242.5H139.68a1.08,1.08,0,0,0-1,.75l-1.7,5.4a1.08,1.08,0,0,0,1,1.4h43.77a1.08,1.08,0,0,0,1-.76l1.67-5.4A1.08,1.08,0,0,0,183.41,242.5Z" transform="translate(0 -0.04)"></path><path class="cls-2 zcGfSqRT_69" d="M139.72,204.77a1.73,1.73,0,0,1,1.81-1.62h57.36a1.73,1.73,0,0,1,1.81,1.62v36.11a1.7,1.7,0,0,1-1.81,1.62H141.52a1.7,1.7,0,0,1-1.81-1.62V204.77Z" transform="translate(0 -0.04)"></path><path class="cls-3 zcGfSqRT_70" d="M147.4,208.75h45.52c1.32,0,2.39,2,2.39,4.42v19.42c0,2.44-1.07,4.42-2.39,4.42H147.4c-1.32,0-2.39-2-2.39-4.42V213.17C145,210.73,146.08,208.75,147.4,208.75Z" transform="translate(0 -0.04)"></path><path class="cls-3 zcGfSqRT_71" width="9" height="4.57" d="M181.04 243.95 L190.04 243.95 L190.04 248.51999999999998 L181.04 248.51999999999998 Z"></path><path class="cls-2 zcGfSqRT_72" width="67.41" height="6.43" d="M234.58 249.97 L301.99 249.97 L301.99 256.4 L234.58 256.4 Z"></path><path class="cls-1 zcGfSqRT_73" d="M254.58,242.5H298.8a1.14,1.14,0,0,1,1.09.81l1.64,5.32a1.14,1.14,0,0,1-1.09,1.48H256.21a1.14,1.14,0,0,1-1.09-.81L253.48,244A1.14,1.14,0,0,1,254.58,242.5Z" transform="translate(0 -0.04)"></path><path class="cls-1 zcGfSqRT_74" d="M281.49,242.5H237.75a1.08,1.08,0,0,0-1,.75l-1.7,5.4a1.08,1.08,0,0,0,1,1.4h43.77a1.08,1.08,0,0,0,1-.76l1.67-5.4A1.08,1.08,0,0,0,281.49,242.5Z" transform="translate(0 -0.04)"></path><path class="cls-2 zcGfSqRT_75" d="M237.8,204.77a1.73,1.73,0,0,1,1.81-1.62H297a1.73,1.73,0,0,1,1.81,1.62v36.11A1.7,1.7,0,0,1,297,242.5H239.6a1.7,1.7,0,0,1-1.81-1.62V204.77Z" transform="translate(0 -0.04)"></path><path class="cls-3 zcGfSqRT_76" d="M245.48,208.75H291c1.32,0,2.39,2,2.39,4.42v19.42c0,2.44-1.07,4.42-2.39,4.42H245.48c-1.32,0-2.39-2-2.39-4.42V213.17C243.09,210.73,244.16,208.75,245.48,208.75Z" transform="translate(0 -0.04)"></path><path class="cls-3 zcGfSqRT_77" width="9" height="4.57" d="M279.11 243.95 L288.11 243.95 L288.11 248.51999999999998 L279.11 248.51999999999998 Z"></path><path class="cls-2 zcGfSqRT_78" d="M257.41,89h6.12c5.8,0,10.48.85,10.48,2v36.45c0,1.13-4.68,2-10.48,2h-6.12c-5.76,0-10.44-.9-10.44-2V91C247,89.82,251.65,89,257.41,89Z" transform="translate(0 -0.04)"></path><path class="cls-3 zcGfSqRT_79" width="18.01" height="26.17" d="M251.47 94.44 L269.48 94.44 L269.48 120.61 L251.47 120.61 Z"></path><path class="cls-8 zcGfSqRT_80" d="M145.95,145.14v10.73a2.41,2.41,0,0,1-2.41,2.41H40.9a2.41,2.41,0,0,0-2.41,2.41v29.78" transform="translate(0 -0.04)"></path><path class="cls-1 zcGfSqRT_81" width="67.5" height="17.82" d="M132.45 108.92 L199.95 108.92 L199.95 126.74000000000001 L132.45 126.74000000000001 Z"></path><path class="cls-2 zcGfSqRT_82" width="3.38" height="10.8" d="M149.32 96.5 L152.7 96.5 L152.7 107.3 L149.32 107.3 Z"></path><path class="cls-1 zcGfSqRT_83" d="M153.82,93.84a2.81,2.81,0,0,1-5.62,0A2.81,2.81,0,0,1,153.82,93.84Z" transform="translate(0 -0.04)"></path><path class="cls-2 zcGfSqRT_84" width="3.38" height="10.8" d="M179.7 96.5 L183.07999999999998 96.5 L183.07999999999998 107.3 L179.7 107.3 Z"></path><path class="cls-1 zcGfSqRT_85" d="M184.2,93.84a2.81,2.81,0,0,1-5.62,0A2.81,2.81,0,0,1,184.2,93.84Z" transform="translate(0 -0.04)"></path><path class="cls-2 zcGfSqRT_86" width="3.38" height="10.8" d="M144.28 128.9 L147.66 128.9 L147.66 139.70000000000002 L144.28 139.70000000000002 Z"></path><path class="cls-1 zcGfSqRT_87" d="M148.78,142.44a2.74,2.74,0,0,1-2.83,2.7,2.7,2.7,0,0,1-2.79-2.7,2.73,2.73,0,0,1,2.79-2.7A2.77,2.77,0,0,1,148.78,142.44Z" transform="translate(0 -0.04)"></path><path class="cls-2 zcGfSqRT_88" width="3.38" height="10.8" d="M164.53 128.9 L167.91 128.9 L167.91 139.70000000000002 L164.53 139.70000000000002 Z"></path><path class="cls-1 zcGfSqRT_89" d="M169,142.44a2.74,2.74,0,0,1-2.83,2.7,2.7,2.7,0,0,1-2.79-2.7,2.73,2.73,0,0,1,2.79-2.7A2.77,2.77,0,0,1,169,142.44Z" transform="translate(0 -0.04)"></path><path class="cls-2 zcGfSqRT_90" width="3.38" height="10.8" d="M184.78 128.9 L188.16 128.9 L188.16 139.70000000000002 L184.78 139.70000000000002 Z"></path><path class="cls-1 zcGfSqRT_91" d="M189.28,142.44a2.74,2.74,0,0,1-2.83,2.7,2.7,2.7,0,0,1-2.79-2.7,2.73,2.73,0,0,1,2.79-2.7A2.77,2.77,0,0,1,189.28,142.44Z" transform="translate(0 -0.04)"></path><path class="cls-3 zcGfSqRT_92" d="M37.370000000000005,35.23A8.12,8.12 0,1,1 53.61,35.23A8.12,8.12 0,1,1 37.370000000000005,35.23"></path><path class="cls-7 zcGfSqRT_93" d="M233.44,170.87V182a1.82,1.82,0,0,1-1.82,1.82H172a1.82,1.82,0,0,0-1.82,1.82V204.1" transform="translate(0 -0.04)"></path><path class="cls-7 zcGfSqRT_94" d="M233.44,166.75V182.5a1.29,1.29,0,0,0,1.29,1.29H267a1.29,1.29,0,0,1,1.29,1.29v20" transform="translate(0 -0.04)"></path><style>.zcGfSqRT_0{stroke-dasharray:192 194;stroke-dashoffset:193;animation:zcGfSqRT_draw 2533ms ease-in-out 0ms forwards;}.zcGfSqRT_1{stroke-dasharray:32 34;stroke-dashoffset:33;animation:zcGfSqRT_draw 2533ms ease-in-out 13ms forwards;}.zcGfSqRT_2{stroke-dasharray:241 243;stroke-dashoffset:242;animation:zcGfSqRT_draw 2533ms ease-in-out 26ms forwards;}.zcGfSqRT_3{stroke-dasharray:170 172;stroke-dashoffset:171;animation:zcGfSqRT_draw 2533ms ease-in-out 40ms forwards;}.zcGfSqRT_4{stroke-dasharray:198 200;stroke-dashoffset:199;animation:zcGfSqRT_draw 2533ms ease-in-out 53ms forwards;}.zcGfSqRT_5{stroke-dasharray:38 40;stroke-dashoffset:39;animation:zcGfSqRT_draw 2533ms ease-in-out 67ms forwards;}.zcGfSqRT_6{stroke-dasharray:59 61;stroke-dashoffset:60;animation:zcGfSqRT_draw 2533ms ease-in-out 80ms forwards;}.zcGfSqRT_7{stroke-dasharray:59 61;stroke-dashoffset:60;animation:zcGfSqRT_draw 2533ms ease-in-out 94ms forwards;}.zcGfSqRT_8{stroke-dasharray:59 61;stroke-dashoffset:60;animation:zcGfSqRT_draw 2533ms ease-in-out 107ms forwards;}.zcGfSqRT_9{stroke-dasharray:32 34;stroke-dashoffset:33;animation:zcGfSqRT_draw 2533ms ease-in-out 121ms forwards;}.zcGfSqRT_10{stroke-dasharray:59 61;stroke-dashoffset:60;animation:zcGfSqRT_draw 2533ms ease-in-out 134ms forwards;}.zcGfSqRT_11{stroke-dasharray:59 61;stroke-dashoffset:60;animation:zcGfSqRT_draw 2533ms ease-in-out 148ms forwards;}.zcGfSqRT_12{stroke-dasharray:59 61;stroke-dashoffset:60;animation:zcGfSqRT_draw 2533ms ease-in-out 161ms forwards;}.zcGfSqRT_13{stroke-dasharray:59 61;stroke-dashoffset:60;animation:zcGfSqRT_draw 2533ms ease-in-out 175ms forwards;}.zcGfSqRT_14{stroke-dasharray:38 40;stroke-dashoffset:39;animation:zcGfSqRT_draw 2533ms ease-in-out 188ms forwards;}.zcGfSqRT_15{stroke-dasharray:59 61;stroke-dashoffset:60;animation:zcGfSqRT_draw 2533ms ease-in-out 202ms forwards;}.zcGfSqRT_16{stroke-dasharray:59 61;stroke-dashoffset:60;animation:zcGfSqRT_draw 2533ms ease-in-out 215ms forwards;}.zcGfSqRT_17{stroke-dasharray:59 61;stroke-dashoffset:60;animation:zcGfSqRT_draw 2533ms ease-in-out 229ms forwards;}.zcGfSqRT_18{stroke-dasharray:32 34;stroke-dashoffset:33;animation:zcGfSqRT_draw 2533ms ease-in-out 242ms forwards;}.zcGfSqRT_19{stroke-dasharray:59 61;stroke-dashoffset:60;animation:zcGfSqRT_draw 2533ms ease-in-out 256ms forwards;}.zcGfSqRT_20{stroke-dasharray:59 61;stroke-dashoffset:60;animation:zcGfSqRT_draw 2533ms ease-in-out 269ms forwards;}.zcGfSqRT_21{stroke-dasharray:59 61;stroke-dashoffset:60;animation:zcGfSqRT_draw 2533ms ease-in-out 282ms forwards;}.zcGfSqRT_22{stroke-dasharray:59 61;stroke-dashoffset:60;animation:zcGfSqRT_draw 2533ms ease-in-out 296ms forwards;}.zcGfSqRT_23{stroke-dasharray:38 40;stroke-dashoffset:39;animation:zcGfSqRT_draw 2533ms ease-in-out 309ms forwards;}.zcGfSqRT_24{stroke-dasharray:59 61;stroke-dashoffset:60;animation:zcGfSqRT_draw 2533ms ease-in-out 323ms forwards;}.zcGfSqRT_25{stroke-dasharray:59 61;stroke-dashoffset:60;animation:zcGfSqRT_draw 2533ms ease-in-out 336ms forwards;}.zcGfSqRT_26{stroke-dasharray:59 61;stroke-dashoffset:60;animation:zcGfSqRT_draw 2533ms ease-in-out 350ms forwards;}.zcGfSqRT_27{stroke-dasharray:32 34;stroke-dashoffset:33;animation:zcGfSqRT_draw 2533ms ease-in-out 363ms forwards;}.zcGfSqRT_28{stroke-dasharray:59 61;stroke-dashoffset:60;animation:zcGfSqRT_draw 2533ms ease-in-out 377ms forwards;}.zcGfSqRT_29{stroke-dasharray:59 61;stroke-dashoffset:60;animation:zcGfSqRT_draw 2533ms ease-in-out 390ms forwards;}.zcGfSqRT_30{stroke-dasharray:59 61;stroke-dashoffset:60;animation:zcGfSqRT_draw 2533ms ease-in-out 404ms forwards;}.zcGfSqRT_31{stroke-dasharray:59 61;stroke-dashoffset:60;animation:zcGfSqRT_draw 2533ms ease-in-out 417ms forwards;}.zcGfSqRT_32{stroke-dasharray:44 46;stroke-dashoffset:45;animation:zcGfSqRT_draw 2533ms ease-in-out 431ms forwards;}.zcGfSqRT_33{stroke-dasharray:30 32;stroke-dashoffset:31;animation:zcGfSqRT_draw 2533ms ease-in-out 444ms forwards;}.zcGfSqRT_34{stroke-dasharray:3 5;stroke-dashoffset:4;animation:zcGfSqRT_draw 2533ms ease-in-out 458ms forwards;}.zcGfSqRT_35{stroke-dasharray:7 9;stroke-dashoffset:8;animation:zcGfSqRT_draw 2533ms ease-in-out 471ms forwards;}.zcGfSqRT_36{stroke-dasharray:7 9;stroke-dashoffset:8;animation:zcGfSqRT_draw 2533ms ease-in-out 485ms forwards;}.zcGfSqRT_37{stroke-dasharray:7 9;stroke-dashoffset:8;animation:zcGfSqRT_draw 2533ms ease-in-out 498ms forwards;}.zcGfSqRT_38{stroke-dasharray:91 93;stroke-dashoffset:92;animation:zcGfSqRT_draw 2533ms ease-in-out 512ms forwards;}.zcGfSqRT_39{stroke-dasharray:2 4;stroke-dashoffset:3;animation:zcGfSqRT_draw 2533ms ease-in-out 525ms forwards;}.zcGfSqRT_40{stroke-dasharray:64 66;stroke-dashoffset:65;animation:zcGfSqRT_draw 2533ms ease-in-out 539ms forwards;}.zcGfSqRT_41{stroke-dasharray:2 4;stroke-dashoffset:3;animation:zcGfSqRT_draw 2533ms ease-in-out 552ms forwards;}.zcGfSqRT_42{stroke-dasharray:30 32;stroke-dashoffset:31;animation:zcGfSqRT_draw 2533ms ease-in-out 565ms forwards;}.zcGfSqRT_43{stroke-dasharray:194 196;stroke-dashoffset:195;animation:zcGfSqRT_draw 2533ms ease-in-out 579ms forwards;}.zcGfSqRT_44{stroke-dasharray:192 194;stroke-dashoffset:193;animation:zcGfSqRT_draw 2533ms ease-in-out 592ms forwards;}.zcGfSqRT_45{stroke-dasharray:95 97;stroke-dashoffset:96;animation:zcGfSqRT_draw 2533ms ease-in-out 606ms forwards;}.zcGfSqRT_46{stroke-dasharray:90 92;stroke-dashoffset:91;animation:zcGfSqRT_draw 2533ms ease-in-out 619ms forwards;}.zcGfSqRT_47{stroke-dasharray:105 107;stroke-dashoffset:106;animation:zcGfSqRT_draw 2533ms ease-in-out 633ms forwards;}.zcGfSqRT_48{stroke-dasharray:152 154;stroke-dashoffset:153;animation:zcGfSqRT_draw 2533ms ease-in-out 646ms forwards;}.zcGfSqRT_49{stroke-dasharray:2 4;stroke-dashoffset:3;animation:zcGfSqRT_draw 2533ms ease-in-out 660ms forwards;}.zcGfSqRT_50{stroke-dasharray:2 4;stroke-dashoffset:3;animation:zcGfSqRT_draw 2533ms ease-in-out 673ms forwards;}.zcGfSqRT_51{stroke-dasharray:53 55;stroke-dashoffset:54;animation:zcGfSqRT_draw 2533ms ease-in-out 687ms forwards;}.zcGfSqRT_52{stroke-dasharray:46 48;stroke-dashoffset:47;animation:zcGfSqRT_draw 2533ms ease-in-out 700ms forwards;}.zcGfSqRT_53{stroke-dasharray:84 86;stroke-dashoffset:85;animation:zcGfSqRT_draw 2533ms ease-in-out 714ms forwards;}.zcGfSqRT_54{stroke-dasharray:53 55;stroke-dashoffset:54;animation:zcGfSqRT_draw 2533ms ease-in-out 727ms forwards;}.zcGfSqRT_55{stroke-dasharray:46 48;stroke-dashoffset:47;animation:zcGfSqRT_draw 2533ms ease-in-out 741ms forwards;}.zcGfSqRT_56{stroke-dasharray:210 212;stroke-dashoffset:211;animation:zcGfSqRT_draw 2533ms ease-in-out 754ms forwards;}.zcGfSqRT_57{stroke-dasharray:75 77;stroke-dashoffset:76;animation:zcGfSqRT_draw 2533ms ease-in-out 768ms forwards;}.zcGfSqRT_58{stroke-dasharray:147 149;stroke-dashoffset:148;animation:zcGfSqRT_draw 2533ms ease-in-out 781ms forwards;}.zcGfSqRT_59{stroke-dasharray:40 42;stroke-dashoffset:41;animation:zcGfSqRT_draw 2533ms ease-in-out 795ms forwards;}.zcGfSqRT_60{stroke-dasharray:120 122;stroke-dashoffset:121;animation:zcGfSqRT_draw 2533ms ease-in-out 808ms forwards;}.zcGfSqRT_61{stroke-dasharray:179 181;stroke-dashoffset:180;animation:zcGfSqRT_draw 2533ms ease-in-out 821ms forwards;}.zcGfSqRT_62{stroke-dasharray:18 20;stroke-dashoffset:19;animation:zcGfSqRT_draw 2533ms ease-in-out 835ms forwards;}.zcGfSqRT_63{stroke-dasharray:18 20;stroke-dashoffset:19;animation:zcGfSqRT_draw 2533ms ease-in-out 848ms forwards;}.zcGfSqRT_64{stroke-dasharray:18 20;stroke-dashoffset:19;animation:zcGfSqRT_draw 2533ms ease-in-out 862ms forwards;}.zcGfSqRT_65{stroke-dasharray:113 115;stroke-dashoffset:114;animation:zcGfSqRT_draw 2533ms ease-in-out 875ms forwards;}.zcGfSqRT_66{stroke-dasharray:148 150;stroke-dashoffset:149;animation:zcGfSqRT_draw 2533ms ease-in-out 889ms forwards;}.zcGfSqRT_67{stroke-dasharray:107 109;stroke-dashoffset:108;animation:zcGfSqRT_draw 2533ms ease-in-out 902ms forwards;}.zcGfSqRT_68{stroke-dasharray:106 108;stroke-dashoffset:107;animation:zcGfSqRT_draw 2533ms ease-in-out 916ms forwards;}.zcGfSqRT_69{stroke-dasharray:198 200;stroke-dashoffset:199;animation:zcGfSqRT_draw 2533ms ease-in-out 929ms forwards;}.zcGfSqRT_70{stroke-dasharray:152 154;stroke-dashoffset:153;animation:zcGfSqRT_draw 2533ms ease-in-out 943ms forwards;}.zcGfSqRT_71{stroke-dasharray:28 30;stroke-dashoffset:29;animation:zcGfSqRT_draw 2533ms ease-in-out 956ms forwards;}.zcGfSqRT_72{stroke-dasharray:148 150;stroke-dashoffset:149;animation:zcGfSqRT_draw 2533ms ease-in-out 970ms forwards;}.zcGfSqRT_73{stroke-dasharray:107 109;stroke-dashoffset:108;animation:zcGfSqRT_draw 2533ms ease-in-out 983ms forwards;}.zcGfSqRT_74{stroke-dasharray:106 108;stroke-dashoffset:107;animation:zcGfSqRT_draw 2533ms ease-in-out 997ms forwards;}.zcGfSqRT_75{stroke-dasharray:198 200;stroke-dashoffset:199;animation:zcGfSqRT_draw 2533ms ease-in-out 1010ms forwards;}.zcGfSqRT_76{stroke-dasharray:152 154;stroke-dashoffset:153;animation:zcGfSqRT_draw 2533ms ease-in-out 1024ms forwards;}.zcGfSqRT_77{stroke-dasharray:28 30;stroke-dashoffset:29;animation:zcGfSqRT_draw 2533ms ease-in-out 1037ms forwards;}.zcGfSqRT_78{stroke-dasharray:129 131;stroke-dashoffset:130;animation:zcGfSqRT_draw 2533ms ease-in-out 1051ms forwards;}.zcGfSqRT_79{stroke-dasharray:89 91;stroke-dashoffset:90;animation:zcGfSqRT_draw 2533ms ease-in-out 1064ms forwards;}.zcGfSqRT_80{stroke-dasharray:151 153;stroke-dashoffset:152;animation:zcGfSqRT_draw 2533ms ease-in-out 1078ms forwards;}.zcGfSqRT_81{stroke-dasharray:171 173;stroke-dashoffset:172;animation:zcGfSqRT_draw 2533ms ease-in-out 1091ms forwards;}.zcGfSqRT_82{stroke-dasharray:29 31;stroke-dashoffset:30;animation:zcGfSqRT_draw 2533ms ease-in-out 1104ms forwards;}.zcGfSqRT_83{stroke-dasharray:18 20;stroke-dashoffset:19;animation:zcGfSqRT_draw 2533ms ease-in-out 1118ms forwards;}.zcGfSqRT_84{stroke-dasharray:29 31;stroke-dashoffset:30;animation:zcGfSqRT_draw 2533ms ease-in-out 1131ms forwards;}.zcGfSqRT_85{stroke-dasharray:18 20;stroke-dashoffset:19;animation:zcGfSqRT_draw 2533ms ease-in-out 1145ms forwards;}.zcGfSqRT_86{stroke-dasharray:29 31;stroke-dashoffset:30;animation:zcGfSqRT_draw 2533ms ease-in-out 1158ms forwards;}.zcGfSqRT_87{stroke-dasharray:18 20;stroke-dashoffset:19;animation:zcGfSqRT_draw 2533ms ease-in-out 1172ms forwards;}.zcGfSqRT_88{stroke-dasharray:29 31;stroke-dashoffset:30;animation:zcGfSqRT_draw 2533ms ease-in-out 1185ms forwards;}.zcGfSqRT_89{stroke-dasharray:18 20;stroke-dashoffset:19;animation:zcGfSqRT_draw 2533ms ease-in-out 1199ms forwards;}.zcGfSqRT_90{stroke-dasharray:29 31;stroke-dashoffset:30;animation:zcGfSqRT_draw 2533ms ease-in-out 1212ms forwards;}.zcGfSqRT_91{stroke-dasharray:18 20;stroke-dashoffset:19;animation:zcGfSqRT_draw 2533ms ease-in-out 1226ms forwards;}.zcGfSqRT_92{stroke-dasharray:52 54;stroke-dashoffset:53;animation:zcGfSqRT_draw 2533ms ease-in-out 1239ms forwards;}.zcGfSqRT_93{stroke-dasharray:95 97;stroke-dashoffset:96;animation:zcGfSqRT_draw 2533ms ease-in-out 1253ms forwards;}.zcGfSqRT_94{stroke-dasharray:73 75;stroke-dashoffset:74;animation:zcGfSqRT_draw 2533ms ease-in-out 1266ms forwards;}@keyframes zcGfSqRT_draw{100%{stroke-dashoffset:0;}}@keyframes zcGfSqRT_fade{0%{stroke-opacity:1;}93.33333333333333%{stroke-opacity:1;}100%{stroke-opacity:0;}}</style></svg>